# xmcd
# 
# Track frame offsets:
#     150
#     13520
#     30182
#     47035
#     66545
#     79725
#     92202
#     107765
#     121852
#     138065
# 
# Disc length: 2006
# 
# Revision: 0
# Processed by: cddbd v1.5.2PL0 Copyright (c) Steve Scherf et al.
# Submitted via: fre:ac v1.0.17
# 
DISCID=7707d40a
DTITLE=Various Artist - Best of Branson, USA, Vol 2
DYEAR=1992
DGENRE=Country
TTITLE0=Stevens - Working for the Japanese
TTITLE1=Bandy - You Haven't Heard the Last of Me
TTITLE2=Sawyer Brown - The Walk
TTITLE3=Sheppard - (Everything I Do) I Do It for You
TTITLE4=McDowell - Just Out of Reach
TTITLE5=Williams - Lonely Street
TTITLE6=Niwton - Daddy Don't You Walk So Fast
TTITLE7=Tillis - Tall Drink of Water
TTITLE8=Osmond - Like a Hurricane
TTITLE9=Clark - Orange Blossom Special
EXTD=
EXTT0=
EXTT1=
EXTT2=
EXTT3=
EXTT4=
EXTT5=
EXTT6=
EXTT7=
EXTT8=
EXTT9=
PLAYORDER=
